<svg xmlns="http://www.w3.org/2000/svg" width="24" height="24"><g transform="translate(0 -1028.362)"><circle cx="12" cy="1040.362" r="12" fill="#50b748"/><path style="line-height:normal;text-indent:0;text-align:start;text-decoration-line:none;text-transform:none;block-progression:tb" fill="#10a711" d="M14.525 23.717a12 12 0 0 0 .686-.154 12 12 0 0 0 1.137-.38 12 12 0 0 0 1.095-.488 12 12 0 0 0 1.041-.597 12 12 0 0 0 .975-.698 12 12 0 0 0 .902-.793 12 12 0 0 0 .817-.877 12 12 0 0 0 .726-.955 12 12 0 0 0 .627-1.021 12 12 0 0 0 .522-1.08 12 12 0 0 0 .412-1.127 12 12 0 0 0 .26-1.016l-7.13-7.129a6.473 6.473 0 0 0-4.593-1.906 6.482 6.482 0 0 0-4.598 1.906 6.494 6.494 0 0 0 0 9.194l7.121 7.12z" color="#000" font-family="sans-serif" font-weight="400" transform="translate(0 1028.362)"/><path style="line-height:normal;text-indent:0;text-align:start;text-decoration-line:none;text-transform:none;block-progression:tb" fill="#fff" d="M8.504 2c1.662 0 3.324.635 4.596 1.906a6.494 6.494 0 0 1 0 9.194 6.494 6.494 0 0 1-9.194 0 6.494 6.494 0 0 1 0-9.194A6.482 6.482 0 0 1 8.504 2Zm2.96 4.502a.503.503 0 0 0-.26.103L7.55 9.345 5.857 7.653c-.367-.382-1.09.34-.707.707l2 2a.517.517 0 0 0 .653.047l4-3c.336-.245.129-.898-.287-.904a.5.5 0 0 0-.051 0z" color="#000" font-family="sans-serif" font-weight="400" overflow="visible" transform="translate(3.497 1031.859)"/></g></svg>